<svg xmlns="http://www.w3.org/2000/svg" version="1.1" xmlns:xlink="http://www.w3.org/1999/xlink" xmlns:svgjs="http://svgjs.dev/svgjs" width="1500" height="492" viewBox="0 0 1500 492"><g transform="matrix(1,0,0,1,-0.9090909090909918,0.28410836603040934)"><svg viewBox="0 0 396 130" data-background-color="#4a5d5e" preserveAspectRatio="xMidYMid meet" height="492" width="1500" xmlns="http://www.w3.org/2000/svg" xmlns:xlink="http://www.w3.org/1999/xlink"><g id="tight-bounds" transform="matrix(1,0,0,1,0.2400000000000091,-0.07506928370722221)"><svg viewBox="0 0 395.52 130.15013856741447" height="130.15013856741447" width="395.52"><g><svg viewBox="0 0 682.2149365090224 224.4902116692181" height="130.15013856741447" width="395.52"><g><rect width="6.898279138437692" height="224.4902116692181" x="261.73833501865363" y="0" fill="#d2dbc8" opacity="1" stroke-width="0" stroke="transparent" fill-opacity="1" class="rect-qz-0" data-fill-palette-color="primary" rx="1%" id="qz-0" data-palette-color="#d2dbc8"></rect></g><g transform="matrix(1,0,0,1,286.69493650902245,0.5584333623612281)"><svg viewBox="0 0 395.5199999999999 223.37334494449564" height="223.37334494449564" width="395.5199999999999"><g id="textblocktransform"><svg viewBox="0 0 395.5199999999999 223.37334494449564" height="223.37334494449564" width="395.5199999999999" id="textblock"><g><svg viewBox="0 0 395.5199999999999 166.60641606886657" height="166.60641606886657" width="395.5199999999999"><g transform="matrix(1,0,0,1,0,0)"><svg width="395.5199999999999" viewBox="0.4500000000000024 -32.3 174.25000000000006 69.7" height="166.60641606886657" data-palette-color="#d2dbc8"><svg></svg><svg></svg><g class="wordmark-text-0" data-fill-palette-color="primary" id="text-0"><path d="M7.15-27c0-1.067-0.123-1.783-0.37-2.15-0.253-0.367-0.747-0.55-1.48-0.55v0c-0.333 0-0.667 0.017-1 0.05-0.333 0.033-0.567 0.05-0.7 0.05v0l-0.1-0.2 0.35-2.2c0.4 0.033 1.15 0.067 2.25 0.1 1.1 0.033 2.2 0.05 3.3 0.05v0c0.9 0 1.927-0.057 3.08-0.17 1.147-0.12 1.903-0.213 2.27-0.28v0l-0.2 2.25c-1.233 0.2-2.083 0.507-2.55 0.92-0.467 0.42-0.717 1.113-0.75 2.08v0l-0.6 21.45c-0.033 1.333 0.1 2.233 0.4 2.7 0.3 0.467 0.9 0.7 1.8 0.7v0c0.5 0 0.967-0.017 1.4-0.05 0.433-0.033 0.717-0.067 0.85-0.1v0l0.1 0.2-0.45 2.3c-0.433-0.033-1.25-0.067-2.45-0.1-1.2-0.033-2.433-0.05-3.7-0.05v0l-5.75 0.05 0.5-2.25c1.067-0.1 1.86-0.267 2.38-0.5 0.513-0.233 0.87-0.6 1.07-1.1 0.2-0.5 0.3-1.233 0.3-2.2v0zM12.15-16.45l8.95-9.3c1.033-1.033 1.55-1.9 1.55-2.6v0c0-0.867-1.05-1.367-3.15-1.5v0l-0.1-0.2 0.35-2.15c0.4 0.033 1.227 0.1 2.48 0.2 1.247 0.1 2.253 0.15 3.02 0.15v0c0.8 0 1.693-0.027 2.68-0.08 0.98-0.047 1.62-0.087 1.92-0.12v0l0.2 0.35-0.35 2.05c-0.867 0.167-1.667 0.517-2.4 1.05-0.733 0.533-1.85 1.583-3.35 3.15v0l-8.05 8.45 8.4 10.95c1.2 1.567 2.277 2.667 3.23 3.3 0.947 0.633 2.003 0.95 3.17 0.95v0l0.2 0.2-0.3 1.7c-0.367 0.067-1.09 0.183-2.17 0.35-1.087 0.167-1.747 0.25-1.98 0.25v0c-0.8 0-1.683-0.377-2.65-1.13-0.967-0.747-1.95-1.803-2.95-3.17v0l-8.75-12.15zM34.05 0.45l0.25-2.05c1.267-0.233 2.117-0.577 2.55-1.03 0.433-0.447 0.65-1.22 0.65-2.32v0l0.05-15.9c0-0.833-0.1-1.393-0.3-1.68-0.2-0.28-0.6-0.42-1.2-0.42v0l-1.65 0.05-0.1-0.2 0.25-1.9c0.2 0 0.743 0.017 1.63 0.05 0.88 0.033 2.037 0.05 3.47 0.05v0c0.767 0 1.71-0.05 2.83-0.15 1.113-0.1 1.837-0.167 2.17-0.2v0l-0.2 2.05c-1.1 0.133-1.833 0.34-2.2 0.62-0.367 0.287-0.583 0.813-0.65 1.58v0c-0.133 2.667-0.257 5.617-0.37 8.85-0.12 3.233-0.18 5.733-0.18 7.5v0c0 1.067 0.117 1.783 0.35 2.15 0.233 0.367 0.7 0.55 1.4 0.55v0c0.467 0 0.893-0.017 1.28-0.05 0.38-0.033 0.637-0.067 0.77-0.1v0l0.1 0.2-0.35 2c-0.4 0-1.15-0.017-2.25-0.05-1.1-0.033-2.2-0.05-3.3-0.05v0c-0.9 0-1.873 0.06-2.92 0.18-1.053 0.113-1.747 0.203-2.08 0.27zM68.9 0.6c-0.733 0-1.483-0.327-2.25-0.98-0.767-0.647-1.467-1.537-2.1-2.67v0l-4.2-7.35h-3.25l-0.1 5.35c0 0.967 0.067 1.657 0.2 2.07 0.133 0.42 0.393 0.697 0.78 0.83 0.38 0.133 1.037 0.217 1.97 0.25v0l0.1 0.15-0.4 1.9c-0.4-0.033-1.123-0.057-2.17-0.07-1.053-0.02-2.113-0.03-3.18-0.03v0c-1.033 0-1.933 0.017-2.7 0.05-0.767 0.033-1.283 0.067-1.55 0.1v0l0.35-2.05c1.233-0.167 2.05-0.45 2.45-0.85 0.4-0.4 0.6-1.15 0.6-2.25v0l0.05-15.95c0-0.8-0.1-1.343-0.3-1.63-0.2-0.28-0.583-0.42-1.15-0.42v0l-1.4 0.05-0.15-0.2 0.3-1.9c0.333 0 0.967 0.017 1.9 0.05 0.933 0.033 1.867 0.05 2.8 0.05v0c0.967 0 2-0.027 3.1-0.08 1.1-0.047 1.85-0.07 2.25-0.07v0c2.7 0 4.817 0.557 6.35 1.67 1.533 1.12 2.3 2.663 2.3 4.63v0c0 1.533-0.517 2.95-1.55 4.25-1.033 1.3-2.483 2.367-4.35 3.2v0l4.25 6.4c0.8 1.2 1.567 2.05 2.3 2.55 0.733 0.5 1.617 0.75 2.65 0.75v0l0.2 0.25-0.25 1.55zM61.25-12.6c0.633-0.267 1.193-0.527 1.68-0.78 0.48-0.247 1.02-0.77 1.62-1.57 0.6-0.8 0.9-1.833 0.9-3.1v0c0-3.233-2.383-4.85-7.15-4.85v0c-0.267 0-0.45 0.057-0.55 0.17-0.1 0.12-0.15 0.363-0.15 0.73v0c-0.267 4.067-0.4 7.067-0.4 9v0zM88 0.35l-0.15-0.25 0.15-1.8c1.4-0.1 2.343-0.25 2.83-0.45 0.48-0.2 0.72-0.533 0.72-1v0c0-0.533-0.117-1.1-0.35-1.7v0l-1.2-3.85c-0.667-0.033-2.05-0.05-4.15-0.05v0c-0.967 0-2.4 0.1-4.3 0.3v0l-1.4 3.7c-0.233 0.767-0.35 1.233-0.35 1.4v0c0 0.533 0.183 0.917 0.55 1.15 0.367 0.233 0.967 0.35 1.8 0.35v0h2.15l0.15 0.2-0.3 1.9c-0.333-0.033-1.09-0.083-2.27-0.15-1.187-0.067-2.347-0.1-3.48-0.1v0c-1.067 0-2.023 0.017-2.87 0.05-0.853 0.033-1.43 0.05-1.73 0.05v0l0.3-2.05c0.733-0.1 1.317-0.36 1.75-0.78 0.433-0.413 0.867-1.12 1.3-2.12v0l7.85-19.85 3.55-0.65 0.35 0.05c0 0.133 0.76 2.767 2.28 7.9 1.513 5.133 2.87 9.383 4.07 12.75v0c0.333 0.967 0.76 1.64 1.28 2.02 0.513 0.387 1.337 0.63 2.47 0.73v0l0.1 0.2-0.25 1.8c-0.333 0-0.95-0.017-1.85-0.05-0.9-0.033-1.8-0.05-2.7-0.05v0c-1.367 0-2.667 0.05-3.9 0.15-1.233 0.1-2.033 0.167-2.4 0.2zM82.35-10.8h3.4c1.167 0 2.383-0.067 3.65-0.2v0l-3.05-9.7h-0.35zM122.4-6.8l-0.05-14.45c0-1.1-0.45-1.65-1.35-1.65v0h-1.5l-0.1-0.2 0.35-1.95c0.3 0.033 0.867 0.067 1.7 0.1 0.833 0.033 1.683 0.05 2.55 0.05v0c0.733 0 1.56-0.043 2.48-0.13 0.913-0.08 1.503-0.137 1.77-0.17v0l-0.2 2.05c-0.967 0.133-1.657 0.39-2.07 0.77-0.42 0.387-0.647 0.963-0.68 1.73v0l-0.6 21.5-1.95 0.55c-3.167-4.633-6.367-9.167-9.6-13.6-3.233-4.433-4.85-6.617-4.85-6.55v0h-0.25l-0.15 15.15c0 0.633 0.1 1.067 0.3 1.3 0.2 0.233 0.533 0.35 1 0.35v0l2-0.05 0.15 0.15-0.4 2c-0.3-0.033-0.89-0.067-1.77-0.1-0.887-0.033-1.813-0.05-2.78-0.05v0c-0.767 0-1.583 0.043-2.45 0.13-0.867 0.08-1.433 0.137-1.7 0.17v0l0.25-2.05c0.833-0.1 1.45-0.343 1.85-0.73 0.4-0.38 0.617-0.953 0.65-1.72v0l0.55-16.5c0-0.833-0.24-1.41-0.72-1.73-0.487-0.313-1.413-0.553-2.78-0.72v0l-0.2-0.25 0.35-1.7c0.267 0.033 0.777 0.073 1.53 0.12 0.747 0.053 1.503 0.08 2.27 0.08v0c0.733 0 1.383-0.017 1.95-0.05 0.567-0.033 0.933-0.067 1.1-0.1v0c2.7 3.967 5.56 8.017 8.58 12.15 3.013 4.133 4.52 6.167 4.52 6.1v0z" fill="#d2dbc8" fill-rule="nonzero" stroke="none" stroke-width="1" stroke-linecap="butt" stroke-linejoin="miter" stroke-miterlimit="10" stroke-dasharray="" stroke-dashoffset="0" font-family="none" font-weight="none" font-size="none" text-anchor="none" style="mix-blend-mode: normal" data-fill-palette-color="primary" opacity="1"></path><path transform="translate(0,36.7)" d="M6.25 0.2l0.4-2.15c1.667-0.133 2.817-0.343 3.45-0.63 0.633-0.28 1.05-0.797 1.25-1.55 0.2-0.747 0.3-2.07 0.3-3.97v0-21.8c-2.833 0.1-4.757 0.257-5.77 0.47-1.02 0.22-1.713 0.703-2.08 1.45-0.367 0.753-0.7 2.213-1 4.38v0l-2.35 0.2c0.4-3.167 0.65-6.05 0.75-8.65v0l0.45-0.4 4.15 0.55h15.5l4.25-0.55 0.45 0.4c0.1 2.733 0.35 5.55 0.75 8.45v0l-2.35 0.2c-0.367-2.2-0.733-3.683-1.1-4.45-0.367-0.767-1.017-1.267-1.95-1.5-0.933-0.233-2.733-0.417-5.4-0.55v0c-0.2 2-0.383 5.533-0.55 10.6-0.167 5.067-0.25 9.633-0.25 13.7v0c0 1.233 0.217 2.107 0.65 2.62 0.433 0.52 1.167 0.78 2.2 0.78v0c1 0 1.917-0.05 2.75-0.15v0l0.15 0.2-0.45 2.3-1.65-0.05-5.7-0.1c-1.833 0-4.117 0.067-6.85 0.2zM29.95 0.45l0.25-2.05c1.267-0.233 2.117-0.577 2.55-1.03 0.433-0.447 0.65-1.22 0.65-2.32v0l0.05-15.9c0-0.833-0.1-1.393-0.3-1.68-0.2-0.28-0.6-0.42-1.2-0.42v0l-1.65 0.05-0.1-0.2 0.25-1.9c0.2 0 0.743 0.017 1.63 0.05 0.88 0.033 2.037 0.05 3.47 0.05v0c0.767 0 1.71-0.05 2.83-0.15 1.113-0.1 1.837-0.167 2.17-0.2v0l-0.2 2.05c-1.1 0.133-1.833 0.34-2.2 0.62-0.367 0.287-0.583 0.813-0.65 1.58v0c-0.133 2.667-0.257 5.617-0.37 8.85-0.12 3.233-0.18 5.733-0.18 7.5v0c0 1.067 0.117 1.783 0.35 2.15 0.233 0.367 0.7 0.55 1.4 0.55v0c0.467 0 0.893-0.017 1.28-0.05 0.38-0.033 0.637-0.067 0.77-0.1v0l0.1 0.2-0.35 2c-0.4 0-1.15-0.017-2.25-0.05-1.1-0.033-2.2-0.05-3.3-0.05v0c-0.9 0-1.877 0.06-2.93 0.18-1.047 0.113-1.737 0.203-2.07 0.27zM64.8 0.6c-0.733 0-1.483-0.327-2.25-0.98-0.767-0.647-1.467-1.537-2.1-2.67v0l-4.2-7.35h-3.25l-0.1 5.35c0 0.967 0.067 1.657 0.2 2.07 0.133 0.42 0.393 0.697 0.78 0.83 0.38 0.133 1.037 0.217 1.97 0.25v0l0.1 0.15-0.4 1.9c-0.4-0.033-1.123-0.057-2.17-0.07-1.053-0.02-2.113-0.03-3.18-0.03v0c-1.033 0-1.933 0.017-2.7 0.05-0.767 0.033-1.283 0.067-1.55 0.1v0l0.35-2.05c1.233-0.167 2.05-0.45 2.45-0.85 0.4-0.4 0.6-1.15 0.6-2.25v0l0.05-15.95c0-0.8-0.1-1.343-0.3-1.63-0.2-0.28-0.583-0.42-1.15-0.42v0l-1.4 0.05-0.15-0.2 0.3-1.9c0.333 0 0.967 0.017 1.9 0.05 0.933 0.033 1.867 0.05 2.8 0.05v0c0.967 0 2-0.027 3.1-0.08 1.1-0.047 1.85-0.07 2.25-0.07v0c2.7 0 4.817 0.557 6.35 1.67 1.533 1.12 2.3 2.663 2.3 4.63v0c0 1.533-0.517 2.95-1.55 4.25-1.033 1.3-2.483 2.367-4.35 3.2v0l4.25 6.4c0.8 1.2 1.567 2.05 2.3 2.55 0.733 0.5 1.617 0.75 2.65 0.75v0l0.2 0.25-0.25 1.55zM57.15-12.6c0.633-0.267 1.193-0.527 1.68-0.78 0.48-0.247 1.02-0.77 1.62-1.57 0.6-0.8 0.9-1.833 0.9-3.1v0c0-3.233-2.383-4.85-7.15-4.85v0c-0.267 0-0.45 0.057-0.55 0.17-0.1 0.12-0.15 0.363-0.15 0.73v0c-0.267 4.067-0.4 7.067-0.4 9v0zM86.25 0.7c-3.367-9.133-5.883-15.817-7.55-20.05v0h-0.25c-0.133 1.6-0.373 4.583-0.72 8.95-0.353 4.367-0.53 6.767-0.53 7.2v0c0 0.433 0.1 0.743 0.3 0.93 0.2 0.18 0.533 0.27 1 0.27v0h1.6l0.1 0.15-0.35 2c-0.3 0-0.873-0.023-1.72-0.07-0.853-0.053-1.697-0.08-2.53-0.08v0c-0.667 0-1.383 0.043-2.15 0.13-0.767 0.08-1.267 0.137-1.5 0.17v0l0.2-2.05c0.867-0.1 1.483-0.36 1.85-0.78 0.367-0.413 0.617-1.137 0.75-2.17v0c0.267-2.267 0.627-5.45 1.08-9.55 0.447-4.1 0.67-6.4 0.67-6.9v0c0-0.667-0.257-1.16-0.77-1.48-0.52-0.313-1.413-0.503-2.68-0.57v0l-0.15-0.25 0.35-1.65c0.367 0.033 1.017 0.073 1.95 0.12 0.933 0.053 1.833 0.08 2.7 0.08v0c0.733 0 1.41-0.017 2.03-0.05 0.613-0.033 1.02-0.067 1.22-0.1v0c1 3.1 1.977 6.01 2.93 8.73 0.947 2.713 1.73 4.877 2.35 6.49 0.613 1.62 1.003 2.63 1.17 3.03v0h0.25c0.367-0.933 1.193-3.117 2.48-6.55 1.28-3.433 2.67-7.3 4.17-11.6v0c0.2-0.033 0.46-0.043 0.78-0.03 0.313 0.02 0.62 0.03 0.92 0.03v0c0.367 0.033 0.9 0.05 1.6 0.05v0c0.533 0 1.31-0.033 2.33-0.1 1.013-0.067 1.687-0.117 2.02-0.15v0l0.1 0.15-0.25 1.75c-1.167 0.133-1.983 0.357-2.45 0.67-0.467 0.32-0.7 0.813-0.7 1.48v0c0 0.667 0.117 2.783 0.35 6.35 0.233 3.567 0.467 6.6 0.7 9.1v0c0.167 1.5 0.383 2.483 0.65 2.95 0.267 0.467 0.717 0.7 1.35 0.7v0l1.15-0.05 0.1 0.15-0.35 2c-0.267 0-0.783-0.017-1.55-0.05-0.767-0.033-1.583-0.05-2.45-0.05v0c-0.867 0-1.85 0.05-2.95 0.15-1.1 0.1-1.683 0.15-1.75 0.15v0l0.2-2.05c0.867-0.1 1.483-0.3 1.85-0.6 0.367-0.3 0.55-0.75 0.55-1.35v0c0-0.6-0.173-2.983-0.52-7.15-0.353-4.167-0.597-7-0.73-8.5v0h-0.25c-1.967 5.033-4.467 11.617-7.5 19.75v0zM119.65 0.35l-0.15-0.25 0.15-1.8c1.4-0.1 2.343-0.25 2.83-0.45 0.48-0.2 0.72-0.533 0.72-1v0c0-0.533-0.117-1.1-0.35-1.7v0l-1.2-3.85c-0.667-0.033-2.05-0.05-4.15-0.05v0c-0.967 0-2.4 0.1-4.3 0.3v0l-1.4 3.7c-0.233 0.767-0.35 1.233-0.35 1.4v0c0 0.533 0.183 0.917 0.55 1.15 0.367 0.233 0.967 0.35 1.8 0.35v0h2.15l0.15 0.2-0.3 1.9c-0.333-0.033-1.09-0.083-2.27-0.15-1.187-0.067-2.347-0.1-3.48-0.1v0c-1.067 0-2.027 0.017-2.88 0.05-0.847 0.033-1.42 0.05-1.72 0.05v0l0.3-2.05c0.733-0.1 1.317-0.36 1.75-0.78 0.433-0.413 0.867-1.12 1.3-2.12v0l7.85-19.85 3.55-0.65 0.35 0.05c0 0.133 0.76 2.767 2.28 7.9 1.513 5.133 2.87 9.383 4.07 12.75v0c0.333 0.967 0.76 1.64 1.28 2.02 0.513 0.387 1.337 0.63 2.47 0.73v0l0.1 0.2-0.25 1.8c-0.333 0-0.95-0.017-1.85-0.05-0.9-0.033-1.8-0.05-2.7-0.05v0c-1.367 0-2.667 0.05-3.9 0.15-1.233 0.1-2.033 0.167-2.4 0.2zM114-10.8h3.4c1.167 0 2.383-0.067 3.65-0.2v0l-3.05-9.7h-0.35zM134 0.4l0.3-2.1c1.067-0.167 1.79-0.477 2.17-0.93 0.387-0.447 0.58-1.237 0.58-2.37v0l0.05-15.85c0-0.833-0.1-1.393-0.3-1.68-0.2-0.28-0.6-0.42-1.2-0.42v0l-1.35 0.05-0.15-0.2 0.3-1.9c0.167 0 0.667 0.017 1.5 0.05 0.833 0.033 1.95 0.05 3.35 0.05v0c0.733 0 1.64-0.05 2.72-0.15 1.087-0.1 1.797-0.167 2.13-0.2v0l-0.2 2.1c-0.9 0.1-1.533 0.257-1.9 0.47-0.367 0.22-0.583 0.497-0.65 0.83-0.067 0.333-0.15 1.017-0.25 2.05v0c-0.333 4.467-0.5 9.417-0.5 14.85v0c0 0.833 0.073 1.44 0.22 1.82 0.153 0.387 0.453 0.647 0.9 0.78 0.453 0.133 1.163 0.2 2.13 0.2v0c1.6 0 2.777-0.133 3.53-0.4 0.747-0.267 1.31-0.793 1.69-1.58 0.387-0.78 0.73-2.02 1.03-3.72v0l2.2-0.25 0.15 0.3c-0.067 0.433-0.227 1.423-0.48 2.97-0.247 1.553-0.47 3.18-0.67 4.88v0l-0.25 0.3c-0.767-0.033-2.393-0.1-4.88-0.2-2.48-0.1-4.57-0.15-6.27-0.15v0c-1.333 0-2.577 0.06-3.73 0.18-1.147 0.113-1.87 0.187-2.17 0.22zM154.75 0.4l0.25-2.1c1.233-0.133 2.067-0.433 2.5-0.9 0.433-0.467 0.65-1.267 0.65-2.4v0l0.05-15.85c0-0.833-0.1-1.393-0.3-1.68-0.2-0.28-0.6-0.42-1.2-0.42v0l-1.35 0.05-0.1-0.2 0.3-1.9c0.4 0 1.183 0.017 2.35 0.05 1.167 0.033 2.433 0.05 3.8 0.05v0c5.567 0 9.683-0.15 12.35-0.45v0l0.15 0.25c-0.067 0.367-0.217 1.2-0.45 2.5-0.233 1.3-0.4 2.7-0.5 4.2v0l-2.4 0.2c0-0.133 0.017-0.36 0.05-0.68 0.033-0.313 0.05-0.637 0.05-0.97v0c0-0.867-0.127-1.477-0.38-1.83-0.247-0.347-0.763-0.58-1.55-0.7-0.78-0.113-2.137-0.17-4.07-0.17v0c-0.9 0-1.517 0.023-1.85 0.07-0.333 0.053-0.55 0.17-0.65 0.35-0.1 0.187-0.167 0.53-0.2 1.03v0l-0.3 7.1 4.1 0.05c0.6 0 1.483-0.06 2.65-0.18 1.167-0.113 1.933-0.187 2.3-0.22v0l0.2 0.25-0.6 2.6c-0.367 0-1.093-0.017-2.18-0.05-1.08-0.033-2.22-0.05-3.42-0.05v0c-0.933 0-1.983 0.083-3.15 0.25v0c-0.1 2.533-0.15 4.817-0.15 6.85v0c0 0.767 0.057 1.3 0.17 1.6 0.12 0.3 0.387 0.5 0.8 0.6 0.42 0.1 1.113 0.15 2.08 0.15v0c2.167 0 3.717-0.1 4.65-0.3 0.933-0.2 1.593-0.61 1.98-1.23 0.38-0.613 0.687-1.67 0.92-3.17v0l2.2-0.2 0.2 0.25c-0.1 0.367-0.277 1.223-0.53 2.57-0.247 1.353-0.437 2.763-0.57 4.23v0l-0.3 0.25c-0.9-0.033-2.767-0.083-5.6-0.15-2.833-0.067-5.133-0.1-6.9-0.1v0c-1.367 0-2.633 0.06-3.8 0.18-1.167 0.113-1.917 0.187-2.25 0.22z" fill="#d2dbc8" fill-rule="nonzero" stroke="none" stroke-width="1" stroke-linecap="butt" stroke-linejoin="miter" stroke-miterlimit="10" stroke-dasharray="" stroke-dashoffset="0" font-family="none" font-weight="none" font-size="none" text-anchor="none" style="mix-blend-mode: normal" data-fill-palette-color="primary" opacity="1"></path></g></svg></g></svg></g><g transform="matrix(1,0,0,1,0,184.6647384207977)"><svg viewBox="0 0 232.20979199999994 38.70860652369795" height="38.70860652369795" width="232.20979199999994"><g transform="matrix(1,0,0,1,0,0)"><svg width="232.20979199999994" viewBox="2 -39 277.43 46.25" height="38.70860652369795" data-palette-color="#d2dbc8"><path d="M17.95 0L17.95 0 6.15 0Q3.7 0 2.85-0.35 2-0.7 2-1.5L2-1.5 2-33.05Q2-34.35 3.1-34.93 4.2-35.5 6.9-35.5L6.9-35.5 18.15-35.5Q27.75-35.5 31.4-31.73 35.05-27.95 35.05-18 35.05-8.05 31.25-4.03 27.45 0 17.95 0ZM17.55-28.05L17.55-28.05Q16.35-28.05 15.95-27.85L15.95-27.85 15.95-7.65 17.85-7.45Q19.35-7.45 20.13-9.85 20.9-12.25 20.9-18.15 20.9-24.05 20.1-26.05 19.3-28.05 17.55-28.05ZM53.1-11.3L51.45-11.3Q51.45-8.05 54.55-8.05L54.55-8.05Q56.35-8.05 59.25-9.28 62.15-10.5 62.3-10.5L62.3-10.5Q63.25-10.5 64.8-7.65 66.35-4.8 66.35-3.45L66.35-3.45Q66.35-1.5 62.35-0.5 58.35 0.5 54.52 0.5 50.7 0.5 48.12-0.1 45.55-0.7 43.92-1.63 42.3-2.55 41.07-3.9 39.85-5.25 39.25-6.48 38.65-7.7 38.3-9.2L38.3-9.2Q37.8-11.4 37.8-13.75L37.8-13.75Q37.8-22.85 42.55-26.3L42.55-26.3Q44.9-28.05 47.8-28.75 50.7-29.45 54.65-29.45L54.65-29.45Q67.3-29.45 67.3-20.65L67.3-20.65Q67.3-11.3 53.1-11.3L53.1-11.3ZM51.35-18.6L51.35-18.6 51.35-15.3Q52.8-15.3 53.72-16.45 54.65-17.6 54.65-19.25L54.65-19.25Q54.65-22.25 53.1-22.25L53.1-22.25Q51.35-22.25 51.35-18.6ZM68.8-25.45L68.8-25.45Q68.8-25.95 70.25-26.78 71.7-27.6 74.2-28.3 76.7-29 79.1-29L79.1-29Q83.95-29 84.1-26.65L84.1-26.65 85.35-10.75 86-10.75 87.1-25.85Q87.2-27.1 90.55-28.05 93.9-29 96.45-29 99-29 100.27-28.55 101.55-28.1 101.9-27.63 102.25-27.15 102.25-26.8 102.25-26.45 100.12-21.65 98-16.85 91.65-1.2L91.65-1.2Q91.15 0 83.5 0L83.5 0Q81.1 0 80.35-0.28 79.6-0.55 79.35-1.2L79.35-1.2Q75.9-9.9 72.35-17.57 68.8-25.25 68.8-25.45ZM119.04-11.3L117.39-11.3Q117.39-8.05 120.49-8.05L120.49-8.05Q122.29-8.05 125.19-9.28 128.09-10.5 128.24-10.5L128.24-10.5Q129.19-10.5 130.74-7.65 132.29-4.8 132.29-3.45L132.29-3.45Q132.29-1.5 128.29-0.5 124.29 0.5 120.47 0.5 116.64 0.5 114.07-0.1 111.49-0.7 109.87-1.63 108.24-2.55 107.02-3.9 105.79-5.25 105.19-6.48 104.59-7.7 104.24-9.2L104.24-9.2Q103.74-11.4 103.74-13.75L103.74-13.75Q103.74-22.85 108.49-26.3L108.49-26.3Q110.84-28.05 113.74-28.75 116.64-29.45 120.59-29.45L120.59-29.45Q133.24-29.45 133.24-20.65L133.24-20.65Q133.24-11.3 119.04-11.3L119.04-11.3ZM117.29-18.6L117.29-18.6 117.29-15.3Q118.74-15.3 119.67-16.45 120.59-17.6 120.59-19.25L120.59-19.25Q120.59-22.25 119.04-22.25L119.04-22.25Q117.29-22.25 117.29-18.6ZM149.74-36.7L149.74-36.7 149.74-1.2Q149.74-0.65 146.89-0.33 144.04 0 141.02 0 137.99 0 137.12-0.28 136.24-0.55 136.24-1.2L136.24-1.2 136.24-35.8Q136.24-36.9 139.06-37.95 141.89-39 145.14-39L145.14-39Q149.74-39 149.74-36.7ZM168.64 0.45L168.64 0.45Q164.89 0.45 162.19-0.2 159.49-0.85 157.29-2.5L157.29-2.5Q152.74-5.8 152.74-14.8L152.74-14.8Q152.74-22.8 157.39-26.25L157.39-26.25Q161.74-29.45 168.64-29.45L168.64-29.45Q171.59-29.45 173.69-29.18 175.79-28.9 177.96-28 180.14-27.1 181.46-25.55 182.79-24 183.64-21.28 184.49-18.55 184.49-14.8L184.49-14.8Q184.49-7.2 180.19-3.38 175.89 0.45 168.64 0.45ZM166.89-9.3Q167.24-7.5 167.61-7.15 167.99-6.8 168.61-6.8 169.24-6.8 169.61-7.15 169.99-7.5 170.31-9.3 170.64-11.1 170.64-13.83 170.64-16.55 170.51-18.03 170.39-19.5 170.21-20.3 170.04-21.1 169.74-21.55L169.74-21.55Q169.29-22.2 168.66-22.2 168.04-22.2 167.64-21.83 167.24-21.45 166.89-19.63 166.54-17.8 166.54-14.45 166.54-11.1 166.89-9.3ZM187.49 6.05L187.49 6.05 187.49-25.75Q187.49-26.8 190.29-27.9 193.09-29 196.34-29L196.34-29Q197.84-29 198.69-28.65 199.54-28.3 199.74-27.95L199.74-27.95Q199.94-27.6 200.49-24.95L200.49-24.95 200.89-24.95Q200.99-25.4 201.79-26.35 202.59-27.3 203.41-27.9 204.24-28.5 205.79-28.98 207.34-29.45 209.41-29.45 211.49-29.45 213.19-28.53 214.89-27.6 215.71-26.38 216.54-25.15 217.01-23.28 217.49-21.4 217.56-20.28 217.64-19.15 217.64-17.03 217.64-14.9 217.49-12.83 217.34-10.75 216.94-8.6 216.54-6.45 215.79-4.9 215.04-3.35 213.89-2.1L213.89-2.1Q211.59 0.4 207.14 0.4L207.14 0.4Q205.54 0.4 204.31-0.08 203.09-0.55 202.49-1.2L202.49-1.2Q201.24-2.55 201.04-3.6L201.04-3.6 200.99-4.1 200.59-4.1 201.29 0.4 201.29 6.05Q201.29 6.6 198.41 6.93 195.54 7.25 192.51 7.25 189.49 7.25 188.49 6.98 187.49 6.7 187.49 6.05ZM204.09-14.65Q204.09-18.9 203.64-20.6 203.19-22.3 202.29-22.3 201.39-22.3 200.99-21.3L200.99-21.3 200.99-8.2Q200.99-6.9 202.34-6.9L202.34-6.9Q204.09-6.9 204.09-14.65L204.09-14.65ZM235.43-11.3L233.78-11.3Q233.78-8.05 236.88-8.05L236.88-8.05Q238.68-8.05 241.58-9.28 244.48-10.5 244.63-10.5L244.63-10.5Q245.58-10.5 247.13-7.65 248.68-4.8 248.68-3.45L248.68-3.45Q248.68-1.5 244.68-0.5 240.68 0.5 236.86 0.5 233.03 0.5 230.46-0.1 227.88-0.7 226.26-1.63 224.63-2.55 223.41-3.9 222.18-5.25 221.58-6.48 220.98-7.7 220.63-9.2L220.63-9.2Q220.13-11.4 220.13-13.75L220.13-13.75Q220.13-22.85 224.88-26.3L224.88-26.3Q227.23-28.05 230.13-28.75 233.03-29.45 236.98-29.45L236.98-29.45Q249.63-29.45 249.63-20.65L249.63-20.65Q249.63-11.3 235.43-11.3L235.43-11.3ZM233.68-18.6L233.68-18.6 233.68-15.3Q235.13-15.3 236.06-16.45 236.98-17.6 236.98-19.25L236.98-19.25Q236.98-22.25 235.43-22.25L235.43-22.25Q233.68-22.25 233.68-18.6ZM266.13-15.8L266.13-15.8 266.13-1.2Q266.13-0.65 263.31-0.33 260.48 0 257.46 0 254.43 0 253.53-0.28 252.63-0.55 252.63-1.2L252.63-1.2 252.63-25.85Q252.63-26.8 255.41-27.9 258.18-29 261.46-29 264.73-29 265.13-27.2L265.13-27.2 265.63-24.9 265.98-24.9Q266.68-26.8 269.33-28.13 271.98-29.45 274.63-29.45 277.28-29.45 278.36-28.6 279.43-27.75 279.43-26.43 279.43-25.1 279.23-23.05 279.03-21 278.25-18.6 277.48-16.2 276.23-16.2L276.23-16.2Q275.73-16.2 273.08-16.95 270.43-17.7 268.71-17.7 266.98-17.7 266.56-17.2 266.13-16.7 266.13-15.8Z" opacity="1" transform="matrix(1,0,0,1,0,0)" fill="#d2dbc8" class="slogan-text-1" data-fill-palette-color="secondary" id="text-1"></path></svg></g></svg></g></svg></g></svg></g><g transform="matrix(1,0,0,1,0,0.5584333623612281)"><svg viewBox="0 0 243.68001266672252 223.37334494449564" height="223.37334494449564" width="243.68001266672252"><g><svg xmlns="http://www.w3.org/2000/svg" xmlns:xlink="http://www.w3.org/1999/xlink" version="1.1" x="0" y="0" viewBox="0 1 24 22" style="enable-background:new 0 0 24 24;" xml:space="preserve" height="223.37334494449564" width="243.68001266672252" class="icon-icon-0" data-fill-palette-color="accent" id="icon-0"><g fill="#f8f8ec" data-fill-palette-color="accent"><path d="M21.5 1h-19C1.122 1 0 2.122 0 3.5v17C0 21.878 1.122 23 2.5 23h19c1.378 0 2.5-1.122 2.5-2.5v-17C24 2.122 22.878 1 21.5 1zM2.5 2h19C22.327 2 23 2.673 23 3.5V5H1V3.5C1 2.673 1.673 2 2.5 2zM21.5 22h-19C1.673 22 1 21.327 1 20.5V6h22v14.5C23 21.327 22.327 22 21.5 22z" fill="#f8f8ec" data-fill-palette-color="accent"></path><circle cx="2.5" cy="3.5" r="0.50" fill="#f8f8ec" data-fill-palette-color="accent"></circle><circle cx="4.5" cy="3.5" r="0.50" fill="#f8f8ec" data-fill-palette-color="accent"></circle><circle cx="6.5" cy="3.5" r="0.50" fill="#f8f8ec" data-fill-palette-color="accent"></circle><path d="M7.853 10.148c-0.195-0.195-0.512-0.195-0.707 0s-0.195 0.512 0 0.707l2.646 2.646-2.646 2.646c-0.195 0.195-0.195 0.512 0 0.707C7.244 16.951 7.372 17 7.5 17s0.256-0.049 0.353-0.145l3-3c0.195-0.195 0.195-0.512 0-0.707L7.853 10.148z" fill="#f8f8ec" data-fill-palette-color="accent"></path><path d="M17.5 15h-5c-0.276 0-0.5 0.224-0.5 0.5s0.224 0.5 0.5 0.5h5c0.276 0 0.5-0.224 0.5-0.5S17.776 15 17.5 15z" fill="#f8f8ec" data-fill-palette-color="accent"></path></g></svg></g></svg></g></svg></g><defs></defs></svg><rect width="395.52" height="130.15013856741447" fill="none" stroke="none" visibility="hidden"></rect></g></svg></g></svg>